<?xml version="1.0"?>
<svg xmlns="http://www.w3.org/2000/svg" xmlns:xlink="http://www.w3.org/1999/xlink" xmlns:svgjs="http://svgjs.com/svgjs" version="1.1" width="512" height="512" x="0" y="0" viewBox="0 0 512 512" style="enable-background:new 0 0 512 512" xml:space="preserve" class=""><g>
<path xmlns="http://www.w3.org/2000/svg" style="" d="M87.135,123.553c-7.567,0-13.702,6.134-13.702,13.702v18.64h27.403v-18.64  C100.837,129.687,94.702,123.553,87.135,123.553z" fill="#f48974" data-original="#f2f0f0" class=""/>
<path xmlns="http://www.w3.org/2000/svg" style="" d="M93.986,125.401c-2.017-1.168-4.352-1.848-6.851-1.848c-7.567,0-13.702,6.134-13.702,13.702v18.64  h13.702v-18.64C87.135,132.186,89.895,127.771,93.986,125.401z" fill="#edcfca" data-original="#dadada" class=""/>
<path xmlns="http://www.w3.org/2000/svg" style="" d="M334.48,191.521v69.317c18.81-0.394,34.954-15.754,34.954-34.658  C369.434,207.276,353.29,191.915,334.48,191.521z" fill="#c56060" data-original="#51506d" class=""/>
<path xmlns="http://www.w3.org/2000/svg" style="" d="M334.48,235.465v25.373c18.81-0.394,34.954-15.754,34.954-34.658c0-2.671-0.333-5.267-0.939-7.764  C364.809,228.037,350.632,235.25,334.48,235.465z" fill="#8d3232" data-original="#3d3d5b" class=""/>
<path xmlns="http://www.w3.org/2000/svg" style="" d="M150.401,402.675l-27.092-37.195c-3.103-4.26-1.877-5.562-8.088-39.91  c-2.231,2.439-5.426,3.984-8.971,3.984c-40.448-0.111-38.448,0.245-40.881-0.302c8.478,45.492,6.671,50.335,12.557,58.417  l32.613,44.773c8.052,11.054,23.608,13.588,34.763,5.451C156.351,429.835,158.453,413.73,150.401,402.675z" fill="#f48974" data-original="#f2f0f0" class=""/>
<path xmlns="http://www.w3.org/2000/svg" style="" d="M134.279,423.922l-32.613-44.773c-5.482-7.528-4.292-12.252-10.952-49.618  c-24.404-0.001-23.279,0.185-25.345-0.279c8.478,45.492,6.671,50.335,12.557,58.417l32.613,44.773  c8.052,11.054,23.608,13.588,34.763,5.451c1.681-1.226,3.152-2.641,4.415-4.193C143.721,432.554,138.137,429.219,134.279,423.922z" fill="#edcfca" data-original="#dadada" class=""/>
<path xmlns="http://www.w3.org/2000/svg" style="" d="M89.121,362.994l-0.914-5.266c-0.719-4.142,2.057-8.083,6.199-8.801  c4.143-0.719,8.083,2.057,8.801,6.199l0.914,5.266c0.719,4.142-2.057,8.083-6.199,8.801  C93.781,369.911,89.84,367.135,89.121,362.994z" fill="#bb2c10" data-original="#c0c0c0" class=""/>
<path xmlns="http://www.w3.org/2000/svg" style="" d="M110.524,299.51H60.033C73.539,299.51,102.547,299.51,110.524,299.51z" fill="#f48974" data-original="#f2f0f0" class=""/>
<path xmlns="http://www.w3.org/2000/svg" style="" d="M55.841,296.465v21.925c0,6.698,5.481,12.179,12.179,12.179h38.229  c6.699,0,12.179-5.481,12.179-12.179v-21.925H55.841z" fill="#edcfca" data-original="#dadada" class=""/>
<path xmlns="http://www.w3.org/2000/svg" style="" d="M83.523,318.39v-21.925H55.841v21.925c0,6.698,5.481,12.179,12.179,12.179h27.681  C89.004,330.569,83.523,325.088,83.523,318.39z" fill="#bb2c10" data-original="#c0c0c0" class=""/>
<path xmlns="http://www.w3.org/2000/svg" style="" d="M52.677,152.887C23.17,153.822,0,178.605,0,208.127v36.106c0,29.522,23.17,54.305,52.677,55.24  c2.187,0.069-3.84,0.024,106.938,0.037V152.85C49.1,152.863,54.886,152.817,52.677,152.887z" fill="#d83d3d" data-original="#d83d3d" class=""/>
<path xmlns="http://www.w3.org/2000/svg" style="" d="M25.373,246.698v-41.037c0-21.919,11.241-41.534,28.382-52.802c-0.551,0.006-0.695,0.015-1.079,0.027  C23.17,153.822,0,178.605,0,208.127v36.106c0,29.522,23.17,54.305,52.677,55.24c0.386,0.012,0.518,0.021,1.079,0.027  C36.614,288.232,25.373,268.617,25.373,246.698z" fill="#c63636" data-original="#c63636" class=""/>
<path xmlns="http://www.w3.org/2000/svg" style="" d="M181.944,153.651c0,17.405,0,129.346,0,145.058c46.407,18.749,56.439,19.791,73.484,31.672  l49.021,34.169c13.095,9.127,31.047-0.242,31.047-16.204c0-12.445,0-254.979,0-246.59c0-15.009-16.881-23.82-29.194-15.237  l-51.712,36.045C238.814,133.559,229.924,134.325,181.944,153.651z" fill="#f48974" data-original="#f2f0f0" class=""/>
<path xmlns="http://www.w3.org/2000/svg" style="" d="M304.448,337.654l-49.021-34.169c-17.045-11.88-27.077-12.923-73.484-31.672c0,13,0,22.963,0,26.896  c46.407,18.749,56.439,19.791,73.484,31.672l49.021,34.169c13.095,9.127,31.047-0.242,31.047-16.204c0-2.272,0-12.216,0-26.896  C335.495,337.412,317.543,346.782,304.448,337.654z" fill="#edcfca" data-original="#dadada" class=""/>
<g xmlns="http://www.w3.org/2000/svg">
	<path style="" d="M490.105,316.771l-93.739-26.001c-4.051-1.124-6.424-5.318-5.301-9.37   c1.123-4.051,5.321-6.421,9.369-5.301l93.739,26.001c4.051,1.124,6.425,5.319,5.301,9.37   C498.351,315.519,494.159,317.893,490.105,316.771z" fill="#f48974" data-original="#f2f0f0" class=""/>
	<path style="" d="M438.55,380.85l-64.967-39.407c-3.594-2.18-4.741-6.861-2.561-10.456s6.86-4.742,10.456-2.561   l64.967,39.407c3.594,2.18,4.741,6.861,2.561,10.456C446.833,381.873,442.154,383.035,438.55,380.85z" fill="#f48974" data-original="#f2f0f0" class=""/>
	<path style="" d="M504.388,233.253h-97.401c-4.204,0-7.612-3.408-7.612-7.612s3.408-7.612,7.612-7.612h97.401   c4.204,0,7.612,3.408,7.612,7.612C512,229.846,508.592,233.253,504.388,233.253z" fill="#f48974" data-original="#f2f0f0" class=""/>
	<path style="" d="M391.065,169.882c-1.124-4.052,1.249-8.246,5.301-9.37l93.739-26.001   c4.049-1.121,8.246,1.251,9.369,5.301c1.124,4.052-1.249,8.246-5.301,9.37l-93.739,26.001   C396.375,176.306,392.187,173.927,391.065,169.882z" fill="#f48974" data-original="#f2f0f0" class=""/>
	<path style="" d="M371.023,120.294c-2.18-3.595-1.034-8.276,2.561-10.456l64.966-39.407   c3.595-2.178,8.276-1.033,10.456,2.561c2.18,3.595,1.034,8.276-2.561,10.456l-64.967,39.407   C377.9,125.023,373.214,123.906,371.023,120.294z" fill="#f48974" data-original="#f2f0f0" class=""/>
</g>
<rect xmlns="http://www.w3.org/2000/svg" x="55.842" y="152.851" style="" width="62.59" height="146.66" fill="#ef5454" data-original="#ef5454" class=""/>
<g xmlns="http://www.w3.org/2000/svg">
	<rect x="55.842" y="152.851" style="" width="25.373" height="146.66" fill="#d83d3d" data-original="#d83d3d" class=""/>
	<rect x="55.842" y="203.551" style="" width="62.59" height="15.224" fill="#d83d3d" data-original="#d83d3d" class=""/>
	<rect x="55.842" y="232.191" style="" width="62.59" height="15.224" fill="#d83d3d" data-original="#d83d3d" class=""/>
	<rect x="55.842" y="260.841" style="" width="62.59" height="15.224" fill="#d83d3d" data-original="#d83d3d" class=""/>
	<rect x="55.842" y="174.911" style="" width="62.59" height="15.224" fill="#d83d3d" data-original="#d83d3d" class=""/>
</g>
<g xmlns="http://www.w3.org/2000/svg">
	<rect x="55.842" y="203.551" style="" width="25.373" height="15.224" fill="#c63636" data-original="#c63636" class=""/>
	<rect x="55.842" y="232.191" style="" width="25.373" height="15.224" fill="#c63636" data-original="#c63636" class=""/>
	<rect x="55.842" y="260.841" style="" width="25.373" height="15.224" fill="#c63636" data-original="#c63636" class=""/>
	<rect x="55.842" y="174.911" style="" width="25.373" height="15.224" fill="#c63636" data-original="#c63636" class=""/>
</g>
<path xmlns="http://www.w3.org/2000/svg" style="" d="M169.257,309.957L169.257,309.957c7.567,0,13.702-6.134,13.702-13.702V156.104  c0-7.567-6.134-13.702-13.702-13.702l0,0c-7.567,0-13.701,6.134-13.701,13.702v140.152  C155.555,303.823,161.69,309.957,169.257,309.957z" fill="#edcfca" data-original="#dadada" class=""/>
<path xmlns="http://www.w3.org/2000/svg" style="" d="M169.257,284.838L169.257,284.838c-7.567,0-13.702-6.134-13.702-13.702v25.119  c0,7.567,6.134,13.702,13.701,13.702l0,0c7.567,0,13.702-6.134,13.702-13.702v-25.119  C182.958,278.704,176.824,284.838,169.257,284.838z" fill="#bb2c10" data-original="#c0c0c0" class=""/>
<g xmlns="http://www.w3.org/2000/svg">
</g>
<g xmlns="http://www.w3.org/2000/svg">
</g>
<g xmlns="http://www.w3.org/2000/svg">
</g>
<g xmlns="http://www.w3.org/2000/svg">
</g>
<g xmlns="http://www.w3.org/2000/svg">
</g>
<g xmlns="http://www.w3.org/2000/svg">
</g>
<g xmlns="http://www.w3.org/2000/svg">
</g>
<g xmlns="http://www.w3.org/2000/svg">
</g>
<g xmlns="http://www.w3.org/2000/svg">
</g>
<g xmlns="http://www.w3.org/2000/svg">
</g>
<g xmlns="http://www.w3.org/2000/svg">
</g>
<g xmlns="http://www.w3.org/2000/svg">
</g>
<g xmlns="http://www.w3.org/2000/svg">
</g>
<g xmlns="http://www.w3.org/2000/svg">
</g>
<g xmlns="http://www.w3.org/2000/svg">
</g>
</g></svg>
