<svg id="card_x5F_poker" enable-background="new 0 0 300 300" height="512" viewBox="0 0 300 300" width="512" xmlns="http://www.w3.org/2000/svg"><circle cx="162.735" cy="131.265" fill="#efefd2" r="92"/><path d="m46.735 116.4c0-13.79 29.773-24.969 66.5-24.969s66.5 11.179 66.5 24.969v49.896c0 13.79-29.773 24.969-66.5 24.969s-66.5-11.179-66.5-24.969z" fill="#9dc1e4"/><path d="m113.235 195.265c-34.176 0-70.5-10.152-70.5-28.969v-49.895c0-18.816 36.324-28.969 70.5-28.969s70.5 10.152 70.5 28.969v49.895c0 18.816-36.324 28.969-70.5 28.969zm0-99.832c-35.771 0-62.5 11.07-62.5 20.969v49.895c0 9.898 26.729 20.969 62.5 20.969s62.5-11.07 62.5-20.969v-49.895c0-9.899-26.728-20.969-62.5-20.969z" fill="#4c241d"/><path d="m179.736 116.4c0 13.79-29.773 24.969-66.5 24.969s-66.5-11.179-66.5-24.969" fill="#9dc1e4"/><path d="m113.235 145.37c-34.176 0-70.5-10.152-70.5-28.969 0-2.211 1.791-4 4-4s4 1.789 4 4c0 9.898 26.729 20.969 62.5 20.969s62.5-11.07 62.5-20.969c0-2.211 1.791-4 4-4s4 1.789 4 4c0 18.817-36.324 28.969-70.5 28.969z" fill="#4c241d"/><path d="m113.235 179.476c-40.191 0-70.5-12.906-70.5-30.023 0-2.211 1.791-4 4-4s4 1.789 4 4c0 10.418 25.668 22.023 62.5 22.023s62.5-11.605 62.5-22.023c0-2.211 1.791-4 4-4s4 1.789 4 4c0 17.116-30.308 30.023-70.5 30.023z" fill="#4c241d"/><path d="m113.235 163.476c-40.191 0-70.5-12.906-70.5-30.023 0-2.211 1.791-4 4-4s4 1.789 4 4c0 10.418 25.668 22.023 62.5 22.023s62.5-11.605 62.5-22.023c0-2.211 1.791-4 4-4s4 1.789 4 4c0 17.116-30.308 30.023-70.5 30.023z" fill="#4c241d"/><path d="m113.235 147.476c-1.908 0-3.785-.051-5.654-.113-1.207-.035-2.334-.621-3.062-1.586s-.982-2.207-.689-3.379l5.141-20.562c.447-1.797 1.918-2.949 3.916-3.031l1.314.016c4.627 0 9.211-.301 13.256-.875.811-.117 1.623.023 2.35.383l29.703 14.852c1.436.719 2.303 2.223 2.203 3.828-.1 1.602-1.146 2.988-2.66 3.523-12.685 4.475-28.956 6.944-45.818 6.944zm-.429-8c12.1.059 23.857-1.258 34.02-3.695l-19.498-9.746c-3.555.445-7.428.711-11.354.77z" fill="#4c241d"/><path d="m97.349 121.401-35.543 12.544c11.099 5.293 27.435 8.824 45.904 9.421l5.141-20.563c-5.801-.07-11.133-.579-15.502-1.402z" fill="#fff"/><path d="m107.712 147.366c-.045 0-.088 0-.131-.004-18.631-.602-35.498-4.086-47.498-9.809-1.461-.695-2.357-2.203-2.271-3.82s1.137-3.023 2.662-3.562l35.543-12.543c.666-.23 1.381-.289 2.074-.156 4.275.805 9.396 1.266 14.809 1.332 1.223.016 2.371.59 3.119 1.559.746.969 1.01 2.227.713 3.41l-5.141 20.562c-.448 1.785-2.051 3.031-3.879 3.031zm-34.322-13.269c8.961 2.742 19.783 4.535 31.23 5.137l3.15-12.602c-3.594-.203-7.008-.578-10.088-1.105z" fill="#4c241d"/><path d="m179.558 122.679c-.062 0-.125-.004-.189-.004l-37.445-1.973c-1.385-.074-2.635-.859-3.299-2.078-.395-.719-.551-1.531-.471-2.324-1.127-.656-3.748-1.727-8.721-2.586-1.791-.309-3.148-1.785-3.305-3.598s.928-3.5 2.639-4.109l30.08-10.742c.91-.324 1.9-.312 2.801.039 14.244 5.559 22.088 13.426 22.088 22.148 0 .488-.062.973-.146 1.453-.234 2.039-1.999 3.774-4.032 3.774zm-40.774-5.918h.039zm7.016-3.867 29.17 1.535c-1.848-3.945-7.104-7.895-14.863-11.121l-17.594 6.285c1.558.965 2.652 2.066 3.287 3.301z" fill="#4c241d"/><path d="m179.578 118.678-37.445-1.971c-1.281 2.236-6.632 4.135-14.117 5.198l29.704 14.852c12.76-4.506 21.004-10.907 21.858-18.079z" fill="#fff"/><path d="m157.72 140.757c-.615 0-1.229-.141-1.789-.422l-29.703-14.852c-1.564-.781-2.439-2.492-2.158-4.219.281-1.73 1.652-3.074 3.385-3.32 7.77-1.102 10.834-2.836 11.295-3.355.75-1.305 2.109-1.949 3.596-1.879l37.445 1.973c1.105.059 2.137.574 2.85 1.422.713.844 1.043 1.949.912 3.047-1.021 8.566-9.723 16.156-24.5 21.379-.433.152-.884.226-1.333.226zm-18.174-17.559 18.42 9.211c7.582-2.871 13.107-6.41 15.814-10.031l-30.002-1.578c-1.078.891-2.49 1.691-4.232 2.398z" fill="#4c241d"/><path d="m105.2 112.909c-.787 0-1.559-.23-2.219-.672l-21.98-14.652c-1.348-.898-2.02-2.52-1.705-4.105.316-1.59 1.557-2.832 3.145-3.145 9.689-1.926 20.051-2.902 30.795-2.902 2.982 0 5.898.098 8.777.242 1.229.062 2.359.684 3.068 1.688.709 1.008.916 2.281.564 3.457l-5.068 16.895c-.518 1.727-2.178 2.785-3.926 2.852-3.648-.09-7.484.016-11.109.328-.115.01-.229.014-.342.014zm-11.269-16.32 12.336 8.223c2.469-.176 4.988-.27 7.512-.281l2.719-9.059c-7.593-.164-15.315.219-22.567 1.117z" fill="#4c241d"/><path d="m61.806 137.944c-.59 0-1.178-.129-1.721-.391-14.34-6.836-17.35-14.703-17.35-20.102 0-4.051 1.738-7.969 5.168-11.645.855-.914 2.104-1.383 3.342-1.246l38.014 4c1.758.184 3.188 1.5 3.514 3.238.271 1.445-.273 2.895-1.369 3.809 1.33.566 3.463 1.254 6.686 1.863 1.777.332 3.109 1.82 3.248 3.625.139 1.801-.951 3.477-2.656 4.078l-35.543 12.543c-.433.154-.884.228-1.333.228zm-9.282-25.207c-1.188 1.625-1.789 3.207-1.789 4.715 0 4.047 4.107 8.43 11.332 12.156l23.281-8.215c-2.227-1.535-3.352-3.383-3.404-5.559z" fill="#4c241d"/><path d="m130.112 109.773 30.081-10.743c-10.118-3.948-23.485-6.605-38.379-7.358l-5.068 16.892c4.929.112 9.493.54 13.366 1.209z" fill="#fff"/><path d="m130.112 113.773c-.227 0-.455-.02-.68-.059-3.771-.648-8.189-1.047-12.775-1.148-1.25-.027-2.414-.637-3.148-1.648-.734-1.008-.953-2.305-.596-3.5l5.068-16.895c.529-1.766 2.209-2.938 4.035-2.848 15.1.766 28.805 3.402 39.631 7.629 1.555.605 2.568 2.117 2.545 3.785-.025 1.668-1.082 3.148-2.654 3.707l-30.08 10.742c-.434.156-.889.235-1.346.235zm-8.062-8.969c2.701.191 5.295.477 7.691.855l17.822-6.367c-6.93-1.688-14.701-2.867-22.828-3.438z" fill="#4c241d"/><path d="m105.201 108.908-21.98-14.653c-14.938 2.966-26.589 8.065-32.394 14.282l38.014 4.002c3.299-1.701 9.175-3.02 16.36-3.631z" fill="#fff"/><path d="m88.841 116.538c-.139 0-.279-.008-.418-.023l-38.014-4c-1.51-.156-2.799-1.156-3.33-2.578-.529-1.418-.211-3.02.824-4.129 6.369-6.82 18.635-12.316 34.537-15.473 1.043-.219 2.117.004 2.998.594l21.98 14.652c1.414.941 2.078 2.676 1.654 4.324-.422 1.648-1.84 2.848-3.535 2.988-6.488.551-12.045 1.746-14.865 3.199-.568.294-1.196.446-1.831.446zm-27.348-10.898 26.656 2.805c1.707-.746 3.803-1.402 6.209-1.957l-11.968-7.977c-8.307 1.765-15.475 4.23-20.897 7.129z" fill="#4c241d"/><ellipse cx="114.201" cy="115.676" fill="#fff" rx="28.259" ry="7.144"/><path d="m114.2 126.819c-5.387 0-32.258-.539-32.258-11.145s26.871-11.145 32.258-11.145 32.26.539 32.26 11.145-26.873 11.145-32.26 11.145zm-22.703-11.144c3.486 1.43 11.334 3.145 22.703 3.145s19.217-1.715 22.705-3.145c-3.488-1.43-11.336-3.145-22.705-3.145s-19.217 1.715-22.703 3.145zm47.285 1.086h.041z" fill="#4c241d"/><path d="m66.735 136.04v16c10.539 4.038 24.48 6.718 40 7.307v-16c-15.519-.589-29.461-3.27-40-7.307z" fill="#fff"/><path d="m106.735 163.347c-.051 0-.102 0-.152-.004-15.408-.586-30.068-3.273-41.279-7.57-1.547-.594-2.568-2.078-2.568-3.734v-16c0-1.316.648-2.551 1.734-3.297 1.082-.746 2.467-.918 3.697-.438 10.412 3.988 24.164 6.492 38.721 7.047 2.148.082 3.848 1.848 3.848 3.996v16c0 1.086-.443 2.129-1.227 2.883-.746.718-1.741 1.117-2.774 1.117zm-36-14.114c9.01 3.09 20.15 5.145 32 5.906v-7.988c-11.631-.711-22.695-2.617-32-5.504z" fill="#4c241d"/><path d="m154.735 137.768v16c12.477-3.908 21.23-9.536 24-15.968v-14.535h-.723c-3.398 5.821-11.755 10.894-23.277 14.503z" fill="#fff"/><path d="m154.735 157.769c-.842 0-1.674-.266-2.367-.777-1.027-.754-1.633-1.949-1.633-3.223v-16c0-1.75 1.135-3.293 2.805-3.816 10.578-3.316 18.24-7.945 21.018-12.703.719-1.23 2.033-1.984 3.455-1.984h.723c2.209 0 4 1.789 4 4v14.534c0 .543-.111 1.082-.326 1.582-4.074 9.465-16.646 15.121-26.479 18.203-.391.125-.795.184-1.196.184zm4-17.11v7.473c8.174-3.195 13.846-7.156 16-11.234v-4.344c-4.068 3.094-9.451 5.824-16 8.105z" fill="#4c241d"/><path d="m66.735 152.04v16c10.539 4.038 24.48 6.718 40 7.307v-16c-15.519-.589-29.461-3.27-40-7.307z" fill="#fff"/><path d="m106.735 179.347c-.051 0-.102 0-.152-.004-15.408-.586-30.068-3.273-41.279-7.57-1.547-.594-2.568-2.078-2.568-3.734v-16c0-1.316.648-2.551 1.734-3.297 1.082-.746 2.467-.914 3.697-.438 10.412 3.988 24.164 6.492 38.721 7.047 2.148.082 3.848 1.848 3.848 3.996v16c0 1.086-.443 2.129-1.227 2.883-.746.718-1.741 1.117-2.774 1.117zm-36-14.114c9.01 3.09 20.15 5.145 32 5.906v-7.988c-11.631-.711-22.695-2.617-32-5.504z" fill="#4c241d"/><path d="m154.735 153.768v16c12.477-3.908 21.23-9.536 24-15.968v-14.535h-.723c-3.398 5.821-11.755 10.894-23.277 14.503z" fill="#fff"/><path d="m154.735 173.769c-.842 0-1.674-.266-2.367-.777-1.027-.754-1.633-1.949-1.633-3.223v-16c0-1.75 1.135-3.293 2.805-3.816 10.578-3.316 18.24-7.945 21.018-12.703.719-1.23 2.033-1.984 3.455-1.984h.723c2.209 0 4 1.789 4 4v14.534c0 .543-.111 1.082-.326 1.582-4.074 9.465-16.646 15.121-26.479 18.203-.391.125-.795.184-1.196.184zm4-17.11v7.473c8.174-3.195 13.846-7.156 16-11.234v-4.344c-4.068 3.094-9.451 5.824-16 8.105z" fill="#4c241d"/><path d="m66.735 168.04v16c10.539 4.038 24.48 6.718 40 7.307v-16c-15.519-.589-29.461-3.27-40-7.307z" fill="#fff"/><path d="m106.735 195.347c-.051 0-.102 0-.152-.004-15.408-.586-30.068-3.273-41.279-7.57-1.547-.594-2.568-2.078-2.568-3.734v-16c0-1.316.648-2.551 1.734-3.297 1.082-.746 2.467-.918 3.697-.438 10.412 3.988 24.164 6.492 38.721 7.047 2.148.082 3.848 1.848 3.848 3.996v16c0 1.086-.443 2.129-1.227 2.883-.746.718-1.741 1.117-2.774 1.117zm-36-14.114c9.01 3.09 20.15 5.145 32 5.906v-7.988c-11.631-.711-22.695-2.617-32-5.504z" fill="#4c241d"/><path d="m154.735 169.768v16c12.477-3.908 21.23-9.536 24-15.968v-14.535h-.723c-3.398 5.821-11.755 10.894-23.277 14.503z" fill="#fff"/><g fill="#4c241d"><path d="m154.735 189.769c-.842 0-1.674-.266-2.367-.777-1.027-.754-1.633-1.949-1.633-3.223v-16c0-1.75 1.135-3.293 2.805-3.816 10.578-3.316 18.24-7.945 21.018-12.703.719-1.23 2.033-1.984 3.455-1.984h.723c2.209 0 4 1.789 4 4v14.534c0 .543-.111 1.082-.326 1.582-4.074 9.465-16.646 15.121-26.479 18.203-.391.125-.795.184-1.196.184zm4-17.11v7.473c8.174-3.195 13.846-7.156 16-11.234v-4.344c-4.068 3.094-9.451 5.824-16 8.105z"/><path d="m44.735 63.265c-7.719 0-14-6.281-14-14s6.281-14 14-14 14 6.281 14 14-6.281 14-14 14zm0-20c-3.309 0-6 2.691-6 6s2.691 6 6 6 6-2.691 6-6-2.691-6-6-6z"/><path d="m232.735 115.265c-7.719 0-14-6.281-14-14s6.281-14 14-14 14 6.281 14 14-6.281 14-14 14zm0-20c-3.309 0-6 2.691-6 6s2.691 6 6 6 6-2.691 6-6-2.691-6-6-6z"/><path d="m232.083 62.612c-1.023 0-2.047-.391-2.828-1.172l-14.695-14.695c-1.562-1.562-1.562-4.094 0-5.656s4.094-1.562 5.656 0l14.695 14.695c1.562 1.562 1.562 4.094 0 5.656-.781.782-1.805 1.172-2.828 1.172z"/><path d="m217.388 62.612c-1.023 0-2.047-.391-2.828-1.172-1.562-1.562-1.562-4.094 0-5.656l14.695-14.695c1.562-1.562 4.094-1.562 5.656 0s1.562 4.094 0 5.656l-14.695 14.695c-.782.782-1.805 1.172-2.828 1.172z"/><path d="m124.083 66.612c-1.023 0-2.047-.391-2.828-1.172l-14.695-14.695c-1.562-1.562-1.562-4.094 0-5.656s4.094-1.562 5.656 0l14.695 14.695c1.562 1.562 1.562 4.094 0 5.656-.781.782-1.805 1.172-2.828 1.172z"/><path d="m109.388 66.612c-1.023 0-2.047-.391-2.828-1.172-1.562-1.562-1.562-4.094 0-5.656l14.695-14.695c1.562-1.562 4.094-1.562 5.656 0s1.562 4.094 0 5.656l-14.695 14.695c-.782.782-1.805 1.172-2.828 1.172z"/><circle cx="84.735" cy="33.265" r="4.529"/><circle cx="264.735" cy="85.265" r="4.529"/><circle cx="176.735" cy="73.265" r="4.529"/></g><path d="m126.735 156.4c0-13.79 29.549-24.969 66-24.969s66 11.179 66 24.969v49.896c0 13.79-29.549 24.969-66 24.969s-66-11.179-66-24.969z" fill="#f53e28"/><path d="m192.735 235.265c-33.934 0-70-10.152-70-28.969v-49.895c0-18.816 36.066-28.969 70-28.969s70 10.152 70 28.969v49.895c0 18.816-36.066 28.969-70 28.969zm0-99.832c-35.484 0-62 11.07-62 20.969v49.895c0 9.898 26.516 20.969 62 20.969s62-11.07 62-20.969v-49.895c0-9.899-26.515-20.969-62-20.969z" fill="#4c241d"/><path d="m259.736 156.4c0 13.79-29.773 24.969-66.5 24.969s-66.5-11.179-66.5-24.969" fill="#f53e28"/><path d="m193.235 185.37c-34.176 0-70.5-10.152-70.5-28.969 0-2.211 1.791-4 4-4s4 1.789 4 4c0 9.898 26.729 20.969 62.5 20.969s62.5-11.07 62.5-20.969c0-2.211 1.791-4 4-4s4 1.789 4 4c0 18.817-36.324 28.969-70.5 28.969z" fill="#4c241d"/><path d="m193.235 219.476c-40.191 0-70.5-12.906-70.5-30.023 0-2.211 1.791-4 4-4s4 1.789 4 4c0 10.418 25.668 22.023 62.5 22.023s62.5-11.605 62.5-22.023c0-2.211 1.791-4 4-4s4 1.789 4 4c0 17.116-30.308 30.023-70.5 30.023z" fill="#4c241d"/><path d="m193.235 203.476c-40.191 0-70.5-12.906-70.5-30.023 0-2.211 1.791-4 4-4s4 1.789 4 4c0 10.418 25.668 22.023 62.5 22.023s62.5-11.605 62.5-22.023c0-2.211 1.791-4 4-4s4 1.789 4 4c0 17.116-30.308 30.023-70.5 30.023z" fill="#4c241d"/><path d="m193.235 187.476c-1.908 0-3.785-.051-5.654-.113-1.207-.035-2.334-.621-3.062-1.586s-.982-2.207-.689-3.379l5.141-20.562c.447-1.797 1.898-2.961 3.916-3.031l1.314.016c4.627 0 9.211-.301 13.256-.875.811-.121 1.623.023 2.35.383l29.703 14.852c1.436.719 2.303 2.223 2.203 3.828-.1 1.602-1.146 2.988-2.66 3.523-12.685 4.475-28.956 6.944-45.818 6.944zm-.429-8c12.145-.004 23.857-1.262 34.02-3.695l-19.498-9.746c-3.555.445-7.428.711-11.354.77z" fill="#4c241d"/><path d="m177.349 161.401-35.543 12.544c11.099 5.293 27.435 8.824 45.904 9.421l5.141-20.563c-5.801-.07-11.133-.579-15.502-1.402z" fill="#fff"/><path d="m187.712 187.366c-.045 0-.088 0-.131-.004-18.631-.602-35.498-4.086-47.498-9.809-1.461-.695-2.357-2.203-2.271-3.82s1.137-3.023 2.662-3.562l35.543-12.543c.668-.23 1.379-.285 2.074-.156 4.275.805 9.396 1.266 14.809 1.332 1.223.016 2.371.59 3.119 1.559.746.969 1.01 2.227.713 3.41l-5.141 20.562c-.448 1.785-2.051 3.031-3.879 3.031zm-34.322-13.269c8.961 2.742 19.783 4.535 31.23 5.137l3.15-12.602c-3.594-.203-7.008-.578-10.088-1.105z" fill="#4c241d"/><path d="m258.558 162.679c-.062 0-.127-.004-.191-.004l-36.721-1.973c-1.381-.074-2.627-.859-3.291-2.07-.4-.73-.557-1.551-.471-2.352-1.098-.652-3.654-1.715-8.506-2.566-1.783-.316-3.133-1.789-3.291-3.59-.158-1.805.914-3.492 2.615-4.109l29.498-10.742c.922-.336 1.934-.328 2.848.043 13.986 5.562 21.687 13.426 21.687 22.137 0 .488-.062.969-.143 1.449-.234 2.039-2.001 3.777-4.034 3.777zm-40.067-5.946h.041zm7.039-3.835 28.453 1.527c-1.809-3.949-6.936-7.891-14.502-11.105l-17.205 6.266c1.545.968 2.627 2.069 3.254 3.312z" fill="#4c241d"/><path d="m258.58 158.678-36.721-1.971c-1.256 2.236-6.503 4.135-13.844 5.198l29.129 14.852c12.515-4.506 20.598-10.907 21.436-18.079z" fill="#fff"/><path d="m237.145 180.757c-.625 0-1.248-.148-1.816-.438l-29.129-14.851c-1.553-.789-2.414-2.496-2.131-4.215.285-1.719 1.65-3.059 3.375-3.305 7.574-1.098 10.562-2.816 11.014-3.328.746-1.328 2.113-1.996 3.617-1.91l36.721 1.973c1.102.062 2.131.574 2.844 1.418.711.844 1.043 1.945.914 3.043-1 8.559-9.541 16.148-24.053 21.375-.44.16-.899.238-1.356.238zm-17.789-17.559 18.039 9.195c7.402-2.867 12.795-6.398 15.434-10.02l-29.309-1.573c-1.062.894-2.453 1.691-4.164 2.398z" fill="#4c241d"/><path d="m185.2 152.909c-.787 0-1.559-.23-2.219-.672l-21.98-14.652c-1.348-.898-2.02-2.52-1.705-4.105.316-1.59 1.557-2.832 3.145-3.145 9.689-1.926 20.051-2.902 30.795-2.902 2.982 0 5.898.098 8.777.242 1.229.062 2.359.684 3.068 1.688.709 1.008.916 2.281.564 3.457l-5.068 16.895c-.52 1.723-2.191 2.836-3.926 2.852-3.648-.09-7.484.016-11.109.328-.115.01-.229.014-.342.014zm-11.269-16.32 12.336 8.223c2.469-.176 4.988-.27 7.512-.281l2.719-9.059c-7.591-.176-15.315.219-22.567 1.117z" fill="#4c241d"/><path d="m141.806 177.944c-.59 0-1.178-.129-1.721-.391-14.34-6.836-17.35-14.703-17.35-20.102 0-4.051 1.738-7.969 5.168-11.645.857-.914 2.107-1.383 3.342-1.246l38.014 4c1.758.184 3.188 1.5 3.514 3.238.271 1.445-.273 2.895-1.369 3.809 1.33.566 3.463 1.254 6.686 1.863 1.777.332 3.109 1.82 3.248 3.625.139 1.801-.951 3.477-2.656 4.078l-35.543 12.543c-.433.154-.884.228-1.333.228zm-9.282-25.207c-1.188 1.625-1.789 3.207-1.789 4.715 0 4.047 4.107 8.43 11.332 12.156l23.281-8.215c-2.227-1.535-3.352-3.383-3.404-5.559z" fill="#4c241d"/><path d="m210.112 149.773 30.081-10.743c-10.118-3.948-23.485-6.605-38.379-7.358l-5.068 16.892c4.929.112 9.493.54 13.366 1.209z" fill="#fff"/><path d="m210.112 153.773c-.227 0-.455-.02-.68-.059-3.771-.648-8.189-1.047-12.775-1.148-1.25-.027-2.414-.637-3.148-1.648-.734-1.008-.953-2.305-.596-3.5l5.068-16.895c.529-1.766 2.195-2.973 4.035-2.848 15.1.766 28.805 3.402 39.631 7.629 1.555.605 2.568 2.117 2.545 3.785-.025 1.668-1.082 3.148-2.654 3.707l-30.08 10.742c-.434.156-.889.235-1.346.235zm-8.062-8.969c2.701.191 5.295.477 7.691.855l17.822-6.367c-6.93-1.688-14.701-2.867-22.828-3.438z" fill="#4c241d"/><path d="m185.201 148.908-21.98-14.653c-14.938 2.966-26.589 8.065-32.394 14.282l38.014 4.002c3.299-1.701 9.175-3.02 16.36-3.631z" fill="#fff"/><path d="m168.841 156.538c-.139 0-.279-.008-.418-.023l-38.014-4c-1.51-.156-2.799-1.156-3.33-2.578-.529-1.418-.211-3.02.824-4.129 6.369-6.82 18.635-12.316 34.537-15.473 1.045-.215 2.117.008 2.998.594l21.98 14.652c1.414.941 2.078 2.676 1.654 4.324-.422 1.648-1.84 2.848-3.535 2.988-6.488.551-12.045 1.746-14.865 3.199-.568.294-1.196.446-1.831.446zm-27.348-10.898 26.656 2.805c1.707-.746 3.803-1.402 6.209-1.957l-11.969-7.977c-8.306 1.765-15.474 4.23-20.896 7.129z" fill="#4c241d"/><ellipse cx="194.201" cy="155.676" fill="#fff" rx="28.259" ry="7.144"/><path d="m194.2 166.819c-5.387 0-32.258-.539-32.258-11.145s26.871-11.145 32.258-11.145 32.26.539 32.26 11.145-26.873 11.145-32.26 11.145zm-22.703-11.144c3.486 1.43 11.334 3.145 22.703 3.145s19.217-1.715 22.705-3.145c-3.488-1.43-11.336-3.145-22.705-3.145s-19.217 1.715-22.703 3.145zm47.285 1.086h.041z" fill="#4c241d"/><path d="m146.735 176.04v16c10.539 4.038 24.48 6.718 40 7.307v-16c-15.519-.589-29.461-3.27-40-7.307z" fill="#fff"/><path d="m186.735 203.347c-.051 0-.102 0-.152-.004-15.408-.586-30.068-3.273-41.279-7.57-1.547-.594-2.568-2.078-2.568-3.734v-16c0-1.316.648-2.551 1.734-3.297 1.084-.746 2.469-.914 3.697-.438 10.412 3.988 24.164 6.492 38.721 7.047 2.148.082 3.848 1.848 3.848 3.996v16c0 1.086-.443 2.129-1.227 2.883-.746.718-1.741 1.117-2.774 1.117zm-36-14.114c9.01 3.09 20.15 5.145 32 5.906v-7.988c-11.631-.711-22.695-2.617-32-5.504z" fill="#4c241d"/><path d="m234.218 177.768v16c12.236-3.908 20.819-9.536 23.536-15.968v-14.535h-.709c-3.333 5.821-11.528 10.894-22.827 14.503z" fill="#fff"/><path d="m234.218 197.769c-.838 0-1.666-.262-2.359-.77-1.031-.754-1.641-1.953-1.641-3.23v-16c0-1.738 1.125-3.281 2.783-3.809 10.354-3.309 17.852-7.93 20.574-12.684.713-1.246 2.037-2.012 3.471-2.012h.707c2.209 0 4 1.789 4 4v14.536c0 .535-.107 1.062-.314 1.555-3.996 9.473-16.348 15.137-26.004 18.223-.399.128-.809.191-1.217.191zm4-17.129v7.449c7.936-3.184 13.441-7.117 15.535-11.172v-4.266c-3.971 3.043-9.195 5.739-15.535 7.989z" fill="#4c241d"/><path d="m146.735 192.04v16c10.539 4.038 24.48 6.718 40 7.307v-16c-15.519-.589-29.461-3.27-40-7.307z" fill="#fff"/><path d="m186.735 219.347c-.051 0-.102 0-.152-.004-15.408-.586-30.068-3.273-41.279-7.57-1.547-.594-2.568-2.078-2.568-3.734v-16c0-1.316.648-2.551 1.734-3.297 1.084-.742 2.469-.914 3.697-.438 10.412 3.988 24.164 6.492 38.721 7.047 2.148.082 3.848 1.848 3.848 3.996v16c0 1.086-.443 2.129-1.227 2.883-.746.718-1.741 1.117-2.774 1.117zm-36-14.114c9.01 3.09 20.15 5.145 32 5.906v-7.988c-11.631-.711-22.695-2.617-32-5.504z" fill="#4c241d"/><path d="m234.218 193.768v16c12.236-3.908 20.819-9.536 23.536-15.968v-14.535h-.709c-3.333 5.821-11.528 10.894-22.827 14.503z" fill="#fff"/><path d="m234.218 213.769c-.838 0-1.666-.262-2.359-.77-1.031-.754-1.641-1.953-1.641-3.23v-16c0-1.738 1.125-3.281 2.783-3.809 10.354-3.309 17.852-7.93 20.574-12.684.713-1.246 2.037-2.012 3.471-2.012h.707c2.209 0 4 1.789 4 4v14.536c0 .535-.107 1.062-.314 1.555-3.996 9.473-16.348 15.137-26.004 18.223-.399.128-.809.191-1.217.191zm4-17.129v7.449c7.936-3.184 13.441-7.117 15.535-11.172v-4.266c-3.971 3.043-9.195 5.739-15.535 7.989z" fill="#4c241d"/><path d="m146.735 208.04v16c10.539 4.038 24.48 6.718 40 7.307v-16c-15.519-.589-29.461-3.27-40-7.307z" fill="#fff"/><path d="m186.735 235.347c-.051 0-.102 0-.152-.004-15.408-.586-30.068-3.273-41.279-7.57-1.547-.594-2.568-2.078-2.568-3.734v-16c0-1.316.648-2.551 1.734-3.297 1.084-.746 2.469-.914 3.697-.438 10.412 3.988 24.164 6.492 38.721 7.047 2.148.082 3.848 1.848 3.848 3.996v16c0 1.086-.443 2.129-1.227 2.883-.746.718-1.741 1.117-2.774 1.117zm-36-14.114c9.01 3.09 20.15 5.145 32 5.906v-7.988c-11.631-.711-22.695-2.617-32-5.504z" fill="#4c241d"/><path d="m234.218 209.768v16c12.236-3.908 20.819-9.536 23.536-15.968v-14.535h-.709c-3.333 5.821-11.528 10.894-22.827 14.503z" fill="#fff"/><path d="m234.218 229.769c-.838 0-1.666-.262-2.359-.77-1.031-.754-1.641-1.953-1.641-3.23v-16c0-1.738 1.125-3.281 2.783-3.809 10.354-3.309 17.852-7.93 20.574-12.684.713-1.246 2.037-2.012 3.471-2.012h.707c2.209 0 4 1.789 4 4v14.536c0 .535-.107 1.062-.314 1.555-3.996 9.473-16.348 15.137-26.004 18.223-.399.128-.809.191-1.217.191zm4-17.129v7.449c7.936-3.184 13.441-7.117 15.535-11.172v-4.266c-3.971 3.043-9.195 5.739-15.535 7.989z" fill="#4c241d"/><path d="m175.106 267.265h-116.742c-6.483 0-11.739-5.256-11.739-11.739v-68.523c0-6.483 5.256-11.739 11.739-11.739h116.742c6.483 0 11.739 5.256 11.739 11.739v68.523c0 6.483-5.256 11.739-11.739 11.739z" fill="#fff"/><path d="m175.106 271.265h-116.742c-8.678 0-15.738-7.059-15.738-15.738v-68.523c0-8.68 7.061-15.738 15.738-15.738h116.742c8.678 0 15.738 7.059 15.738 15.738v68.523c.001 8.679-7.06 15.738-15.738 15.738zm-116.742-92c-4.268 0-7.738 3.473-7.738 7.738v68.523c0 4.266 3.471 7.738 7.738 7.738h116.742c4.268 0 7.738-3.473 7.738-7.738v-68.523c0-4.266-3.471-7.738-7.738-7.738z" fill="#4c241d"/><path d="m46.626 195.265h140.219v16h-140.219z" fill="#6b4f5b"/><path d="m186.845 215.265h-140.219c-2.209 0-4-1.789-4-4v-16c0-2.211 1.791-4 4-4h140.219c2.209 0 4 1.789 4 4v16c0 2.211-1.791 4-4 4zm-136.219-8h132.219v-8h-132.219z" fill="#4c241d"/><path d="m158.735 235.265h-84c-2.209 0-4-1.789-4-4s1.791-4 4-4h84c2.209 0 4 1.789 4 4s-1.791 4-4 4z" fill="#4c241d"/><circle cx="152.921" cy="248.273" fill="#fc8c29" r="5.878"/><circle cx="161.967" cy="248.273" fill="#f53e28" r="5.878"/></svg>