<?xml version="1.0" encoding="UTF-8"?>
<svg xmlns="http://www.w3.org/2000/svg" xmlns:xlink="http://www.w3.org/1999/xlink" xmlns:svgjs="http://svgjs.com/svgjs" version="1.1" width="512" height="512" x="0" y="0" viewBox="0 0 512 512" style="enable-background:new 0 0 512 512" xml:space="preserve" class="">
  <g>
    <linearGradient xmlns="http://www.w3.org/2000/svg" id="SVGID_1_" gradientUnits="userSpaceOnUse" x1="256" x2="256" y1="466" y2="46">
      <stop stop-opacity="1" stop-color="#ff7355" offset="0"/>
      <stop stop-opacity="1" stop-color="#ff0003" offset="1"/>
    </linearGradient>
    <g xmlns="http://www.w3.org/2000/svg">
      <g>
        <path d="m502 301c0-8.613-2.437-16.666-6.651-23.514 10.151-8.258 16.651-20.839 16.651-34.914 0-25.245-20.607-46.572-45-46.572h-76v-75c0-41.355-33.645-75-75-75-8.284 0-15 6.716-15 15v81.972l-58.359 38.906c-15.566 10.378-26.205 26.248-30.049 44.122h-31.592v-15c0-8.284-6.716-15-15-15h-151c-8.284 0-15 6.716-15 15v240c0 8.284 6.716 15 15 15h151c8.284 0 15-6.716 15-15v-15h39.026c21.573 19.394 49.171 30 78.4 30h138.574c24.813 0 45-20.187 45-45 0-9.057-2.699-17.491-7.321-24.559 10.532-8.243 17.321-21.06 17.321-35.441 0-9.057-2.699-17.491-7.321-24.559 10.532-8.243 17.321-21.06 17.321-35.441zm-351 135h-121v-210h121zm322.678-180h-16.678c-8.284 0-15 6.716-15 15s6.716 15 15 15c8.271 0 15 6.729 15 15s-6.729 15-15 15c-1.252 0-7.836 0-10 0-8.284 0-15 6.716-15 15s6.716 15 15 15c8.271 0 15 6.729 15 15s-6.729 15-15 15c-1.252 0-7.836 0-10 0-8.284 0-15 6.716-15 15s6.716 15 15 15c8.271 0 15 6.729 15 15s-6.729 15-15 15h-138.574c-23.352 0-45.307-9.094-61.82-25.607-2.813-2.813-6.628-4.393-10.606-4.393h-45v-150h45c8.284 0 15-6.716 15-15 0-13.758 6.834-26.528 18.282-34.16l65.039-43.359c4.173-2.782 6.68-7.466 6.68-12.481v-72.43c17.461 6.191 30 22.874 30 42.43v90c0 8.284 6.716 15 15 15h91c7.851 0 15 7.898 15 16.572-.001 5.873-3.394 10.968-8.323 13.428zm-367.678 30c8.284 0 15-6.716 15-15s-6.716-15-15-15-15 6.716-15 15 6.716 15 15 15z" fill="url(#SVGID_1_)" data-original="url(#SVGID_1_)" style=""/>
      </g>
    </g>
  </g>
</svg>
